<svg xmlns="http://www.w3.org/2000/svg" xmlns:xlink="http://www.w3.org/1999/xlink" viewBox="0 0 358.41 357.86"><defs><style>.cls-1,.cls-2,.cls-4{isolation:isolate;}.cls-2{fill:url(#Degradado_PPA);}.cls-3,.cls-4{fill:#fff;}</style><linearGradient id="Degradado_PPA" x1="264.92" y1="327.38" x2="93.5" y2="30.47" gradientUnits="userSpaceOnUse"><stop offset="0" stop-color="#f3931b"/><stop offset="1" stop-color="#e73447"/></linearGradient></defs><title>Mesa de trabajo 2</title><g id="Logo_en_degradado_positivo_y_negativo" data-name="Logo en degradado positivo y negativo"><g id="Negativo"><circle id="fondo" class="cls-2" cx="179.21" cy="178.93" r="171.39"/><path id="Letas_PPA" data-name="Letas PPA" class="cls-3" d="M67.26,167.29A11.76,11.76,0,0,0,64.2,162a10.76,10.76,0,0,0-4.91-2.9,19.17,19.17,0,0,0-6.29-.37l-13,1.16,0,60.87,8.66-.77V196.18l4.42-.4a16.87,16.87,0,0,0,7.8-2.36,14.5,14.5,0,0,0,4.76-5.08,16.11,16.11,0,0,0,2-5.48,44.47,44.47,0,0,0,.47-7A34.17,34.17,0,0,0,67.26,167.29ZM59.83,180.9a8.39,8.39,0,0,1-.82,3.24,5.49,5.49,0,0,1-2.11,2.33,9.55,9.55,0,0,1-4.08,1.13l-4.15.37V167.29l4.49-.41a7.72,7.72,0,0,1,3.9.42,4.26,4.26,0,0,1,2,2,8.27,8.27,0,0,1,.76,3.31q.09,1.92.09,4C60,178.25,59.91,179.65,59.83,180.9ZM97,179.21a11.11,11.11,0,0,0-2.7-4A10.44,10.44,0,0,0,90.13,173a14.63,14.63,0,0,0-5.08-.41,14.84,14.84,0,0,0-5.35,1.47,13.72,13.72,0,0,0-4.07,3,15.31,15.31,0,0,0-3.91,9.76l8.4-.76A5.84,5.84,0,0,1,82,182.69,5.27,5.27,0,0,1,85,181.31c1.65-.15,2.77.23,3.39,1.14a6.33,6.33,0,0,1,.94,3.6v4.53c-.46,0-.88,0-1.28,0a4.38,4.38,0,0,1-1,0,7.2,7.2,0,0,0-.93,0l-.94.09a21.87,21.87,0,0,0-6.7,1.5,10.39,10.39,0,0,0-4.16,3.06,11.55,11.55,0,0,0-2.21,4.86,32.31,32.31,0,0,0-.59,6.5,15.64,15.64,0,0,0,.88,5.78,7.45,7.45,0,0,0,2.34,3.26,7.12,7.12,0,0,0,3,1.48,10.5,10.5,0,0,0,3.1.2,8.82,8.82,0,0,0,4.87-1.72,18.51,18.51,0,0,0,3.44-4h.18v4.44l8.66-.77V185.11A15.42,15.42,0,0,0,97,179.21Zm-7.64,24.11a6.66,6.66,0,0,1-1.24,4.22,4.64,4.64,0,0,1-3.43,1.75,3.58,3.58,0,0,1-3.31-1.24,5.89,5.89,0,0,1-1.19-3.91c0-2.34.67-4,2-5A9.35,9.35,0,0,1,87,197.37a15.1,15.1,0,0,1,2.37,0Zm60.35,23-7.22.65L129,289l8.65-.77L140.17,275,152,273.9l2.54,12.85,8.66-.76Zm-8,40.31L146,244.18l.17,0,4.23,21.68Zm69.1-18.24,0,33.26-8.65.77v-30a5.49,5.49,0,0,0-1.1-3.67,3.48,3.48,0,0,0-3.14-1.07,4,4,0,0,0-3.4,1.83,9.16,9.16,0,0,0-.93,4.53v29.16l-8.66.77v-30a5.44,5.44,0,0,0-1.09-3.66,3.5,3.5,0,0,0-3.14-1.09,4,4,0,0,0-3.4,1.85,9,9,0,0,0-.94,4.53v29.15l-8.66.77,0-43.34,8.65-.78v4.19l.17,0a14.24,14.24,0,0,1,3.27-3.67,9,9,0,0,1,4.88-1.75,7.13,7.13,0,0,1,4.66.95,11.94,11.94,0,0,1,3.06,2.72,20.91,20.91,0,0,1,3.57-3.41,10.53,10.53,0,0,1,5.42-1.76,10.7,10.7,0,0,1,3.31.25,7.29,7.29,0,0,1,3.06,1.58,8.38,8.38,0,0,1,2.2,3.09A12,12,0,0,1,210.81,248.38ZM241.59,245a11,11,0,0,0-1.27-3.82,10.31,10.31,0,0,0-4.38-4.14A12.44,12.44,0,0,0,229,235.9a14.24,14.24,0,0,0-6.92,2.32,13.57,13.57,0,0,0-4.37,4.93,13,13,0,0,0-1.27,4,32.5,32.5,0,0,0-.34,4.9v14.28a31.23,31.23,0,0,0,.34,4.84,10.89,10.89,0,0,0,1.27,3.82,10.26,10.26,0,0,0,4.36,4.14,12.65,12.65,0,0,0,6.92,1.1,14.18,14.18,0,0,0,6.91-2.34A13.32,13.32,0,0,0,240.3,273a12.73,12.73,0,0,0,1.27-4,32.45,32.45,0,0,0,.35-4.9V249.79A32.51,32.51,0,0,0,241.59,245Zm-8.33,21.27a5.67,5.67,0,0,1-1.15,3.81,4.39,4.39,0,0,1-3.09,1.52,3.68,3.68,0,0,1-3.1-1,5,5,0,0,1-1.15-3.61V250a5.71,5.71,0,0,1,1.15-3.82,4.41,4.41,0,0,1,3.1-1.52,3.66,3.66,0,0,1,3.09,1,4.87,4.87,0,0,1,1.14,3.62Zm84.82-104.41a11.17,11.17,0,0,0-1.27-3.82,10.3,10.3,0,0,0-4.36-4.13,12.5,12.5,0,0,0-6.92-1.1,14.24,14.24,0,0,0-6.92,2.33,13.37,13.37,0,0,0-4.37,4.92,12.82,12.82,0,0,0-1.28,4.05,32.6,32.6,0,0,0-.34,4.9v14.28a31.36,31.36,0,0,0,.34,4.85,10.83,10.83,0,0,0,1.27,3.81,10.25,10.25,0,0,0,4.37,4.15,12.53,12.53,0,0,0,6.91,1.09,14.11,14.11,0,0,0,6.92-2.34,13,13,0,0,0,5.65-9,33.86,33.86,0,0,0,.34-4.9V166.66A31.36,31.36,0,0,0,318.08,161.81Zm-8.32,21.27a5.7,5.7,0,0,1-1.16,3.82,4.39,4.39,0,0,1-3.09,1.52,3.72,3.72,0,0,1-3.1-1,4.92,4.92,0,0,1-1.14-3.61v-17a5.73,5.73,0,0,1,1.14-3.82,4.42,4.42,0,0,1,3.1-1.51,3.7,3.7,0,0,1,3.1,1,4.93,4.93,0,0,1,1.15,3.61Zm-26.72-21v24a7.3,7.3,0,0,0,.29,2.37,2.09,2.09,0,0,0,1,1.2,3.47,3.47,0,0,0,1.65.36c.64,0,1.46,0,2.42-.13v8.21l-3.56.31a11,11,0,0,1-5-.49,8,8,0,0,1-3.18-2.11,8.57,8.57,0,0,1-1.74-3.13,12.09,12.09,0,0,1-.55-3.5l0-26.33-4.33.38v-6.83l4.33-.4V142.9l8.65-.78v13.16l5.35-.47v6.84Zm-18.4-5.27,0,43.34L256,201v-4.19l-.17,0a14.45,14.45,0,0,1-3.27,3.67,9,9,0,0,1-4.88,1.75,9.56,9.56,0,0,1-3.23-.26,6.63,6.63,0,0,1-2.88-1.59,8.11,8.11,0,0,1-2-3.11,13.5,13.5,0,0,1-.76-4.84l0-33.26,8.65-.77v30a5.44,5.44,0,0,0,1.1,3.66,3.49,3.49,0,0,0,3.14,1.09,4,4,0,0,0,3.39-1.85,9,9,0,0,0,.95-4.53V157.63ZM233,152.28A11.6,11.6,0,0,0,230,147a10.76,10.76,0,0,0-4.92-2.89,18.56,18.56,0,0,0-6.28-.38l-13,1.17,0,60.87,8.67-.78V181.17l4.41-.39a17,17,0,0,0,7.81-2.37,14.42,14.42,0,0,0,4.75-5.09,15.63,15.63,0,0,0,2-5.48,44.06,44.06,0,0,0,.47-7A34.57,34.57,0,0,0,233,152.28Zm-7.43,13.62a8.29,8.29,0,0,1-.81,3.23,5.45,5.45,0,0,1-2.12,2.33,9.23,9.23,0,0,1-4.07,1.13l-4.16.38V152.28l4.5-.41a7.83,7.83,0,0,1,3.9.42,4.24,4.24,0,0,1,2,2,8.32,8.32,0,0,1,.77,3.32c.06,1.27.08,2.62.08,4S225.68,164.63,225.59,165.9Zm-47.24,5.85v24a7.59,7.59,0,0,0,.29,2.37,2.06,2.06,0,0,0,1,1.19,3.39,3.39,0,0,0,1.66.37c.64,0,1.45,0,2.41-.13v8.21l-3.57.32a11.37,11.37,0,0,1-5-.5,7.89,7.89,0,0,1-3.18-2.11,8.51,8.51,0,0,1-1.74-3.13,11.49,11.49,0,0,1-.55-3.5V172.52l-4.32.39v-6.84l4.32-.38V152.51l8.66-.77v13.17l5.35-.48v6.84ZM160.88,149v8.71l-8.65.78v-8.72Zm0,17.52,0,43.35-8.66.77,0-43.34Zm-19,8.55v24a7.63,7.63,0,0,0,.29,2.37,2.1,2.1,0,0,0,1,1.19,3.38,3.38,0,0,0,1.65.36c.65,0,1.46,0,2.42-.12V211l-3.57.32a11.11,11.11,0,0,1-5-.49,7.8,7.8,0,0,1-3.18-2.12,8.33,8.33,0,0,1-1.74-3.12,12.15,12.15,0,0,1-.55-3.51V175.79l-4.32.39v-6.84l4.33-.39V155.79l8.66-.78v13.16l5.34-.47v6.83Zm-17.49-6.12v9.24a6.88,6.88,0,0,0-2.63-.29,11.05,11.05,0,0,0-2.93.74,8.64,8.64,0,0,0-2.84,1.83,9.44,9.44,0,0,0-2.22,3.11,11.18,11.18,0,0,0-.85,4.52v25.74l-8.65.77,0-43.35,8.65-.77v4.61a31.31,31.31,0,0,1,5.18-4.22A14.22,14.22,0,0,1,124.37,168.9Zm81.42-24.05,13-1.17"/><path id="Gaviota_positiva" data-name="Gaviota positiva" class="cls-4" d="M141.73,120.64a11.54,11.54,0,0,1,3.65-2.11,39.06,39.06,0,0,1-5.46-3.48c-2.69-2.25-4.06-3.89-9-4.43-3.77-.42-10.47,4.7-14.15,5s-21.5,1.19-24.22-.08c-4-1.91,19.92-6.29,23.59-12.52s13.08-8.25,18.38-8.07c6,.17,18.46,8.18,29,15.16,1.71,1.14,5.66-1.27,5.66-1.27s34.51-41,56.24-40c9.15.43,17.61,3.06,25.36,4.38,15.32,2.63,13.17,3.51,13.17,3.51s-3.85,4.47-14,4.15c-11.77-.37-26.41-2.4-35.64,4.77C197.1,99,198.6,114.59,199.74,115s20.26-3.86,24.17,1.39c4.08,5.48,12.41,5.33,12.41,5.33,2.13.86-27.25,8.6-32.4,7.63-3.65-.68-13-3.11-13-3.11s-13.23,6.56-22,6.41a111.18,111.18,0,0,1-16.3-1.6l-6.9.08-12.52,1.46.72-1.93c1.46-.46,2.88-.94,3-2l2.29-4.62A26.05,26.05,0,0,1,141.73,120.64Z"/></g></g></svg>