<svg xmlns="http://www.w3.org/2000/svg" viewBox="0 0 357.26 357.26"><defs><style>.cls-1,.cls-3{isolation:isolate;}.cls-2{fill:#f3931b;}.cls-3,.cls-4{fill:#fff;}</style></defs><title>Mesa de trabajo 10</title><g id="Logo_naranja" data-name="Logo naranja"><g id="Negativo"><circle class="cls-2" cx="178.63" cy="178.63" r="171.39"/><path id="Gaviota_positiva" data-name="Gaviota positiva" class="cls-3" d="M141.15,120.34a11.54,11.54,0,0,1,3.66-2.11,38.45,38.45,0,0,1-5.46-3.48c-2.7-2.25-4.07-3.88-9-4.42-3.78-.43-10.48,4.7-14.16,5s-21.49,1.19-24.22-.08c-4-1.91,19.93-6.29,23.59-12.52s13.08-8.24,18.38-8.07c6,.17,18.46,8.18,29,15.17,1.72,1.13,5.66-1.28,5.66-1.28s34.52-41,56.24-40c9.15.42,17.61,3,25.36,4.37,15.33,2.63,13.17,3.51,13.17,3.51s-3.85,4.47-14,4.15c-11.76-.37-26.41-2.4-35.64,4.77-17.18,13.37-15.68,29-14.53,29.31s20.25-3.86,24.16,1.39c4.08,5.48,12.41,5.33,12.41,5.33,2.13.86-27.25,8.6-32.4,7.63-3.65-.68-13-3.11-13-3.11s-13.24,6.56-22,6.42A112,112,0,0,1,152,130.7l-6.9.08-12.52,1.46.73-1.93c1.45-.46,2.87-.94,3-2l2.29-4.62A26.05,26.05,0,0,1,141.15,120.34Z"/><path class="cls-4" d="M66.68,167a11.67,11.67,0,0,0-3.06-5.33,10.76,10.76,0,0,0-4.91-2.9,19.13,19.13,0,0,0-6.28-.37l-13,1.16,0,60.87,8.65-.77V195.88l4.42-.4a16.84,16.84,0,0,0,7.8-2.36A14.41,14.41,0,0,0,65.06,188a16.11,16.11,0,0,0,2-5.48,44.38,44.38,0,0,0,.47-7A34.17,34.17,0,0,0,66.68,167ZM59.25,180.6a8.57,8.57,0,0,1-.81,3.24,5.51,5.51,0,0,1-2.12,2.33,9.54,9.54,0,0,1-4.08,1.14l-4.15.36V167l4.49-.41a7.78,7.78,0,0,1,3.91.42,4.34,4.34,0,0,1,2,2,8.63,8.63,0,0,1,.76,3.31c.05,1.28.08,2.63.08,4.05S59.33,179.35,59.25,180.6Zm37.18-1.69a11.26,11.26,0,0,0-2.71-4,10.47,10.47,0,0,0-4.16-2.19,14.71,14.71,0,0,0-5.09-.41,14.9,14.9,0,0,0-5.35,1.47,13.85,13.85,0,0,0-4.07,3.05,15.31,15.31,0,0,0-3.91,9.76l8.4-.75a5.92,5.92,0,0,1,1.83-3.42A5.3,5.3,0,0,1,84.46,181c1.65-.14,2.77.23,3.4,1.15a6.27,6.27,0,0,1,.93,3.59v4.53c-.46,0-.88,0-1.27,0a6,6,0,0,1-1,0,4.81,4.81,0,0,0-.93,0l-.93.08a21.94,21.94,0,0,0-6.71,1.5A10.29,10.29,0,0,0,73.77,195a11.62,11.62,0,0,0-2.22,4.86,32.31,32.31,0,0,0-.59,6.5,15.51,15.51,0,0,0,.89,5.79,7.38,7.38,0,0,0,2.33,3.25,7.18,7.18,0,0,0,3,1.48,10.52,10.52,0,0,0,3.1.2,8.85,8.85,0,0,0,4.88-1.72,18.55,18.55,0,0,0,3.44-4h.17v4.44l8.66-.77V184.81A15.62,15.62,0,0,0,96.43,178.91ZM88.78,203a6.58,6.58,0,0,1-1.24,4.22A4.66,4.66,0,0,1,84.11,209a3.62,3.62,0,0,1-3.31-1.25,5.94,5.94,0,0,1-1.19-3.9c0-2.35.67-4,2-5a9.28,9.28,0,0,1,4.8-1.75,13.81,13.81,0,0,1,2.37,0Zm60.35,23-7.22.65-13.52,62.08L137,288l2.56-13.31,11.8-1.06,2.53,12.85,8.66-.76Zm-8,40.31,4.26-22.44.16,0,4.24,21.68Zm69.11-18.24,0,33.26-8.66.77v-30a5.39,5.39,0,0,0-1.1-3.66,3.45,3.45,0,0,0-3.13-1.08,4,4,0,0,0-3.41,1.84,9.12,9.12,0,0,0-.93,4.52v29.16l-8.66.78,0-30a5.44,5.44,0,0,0-1.1-3.66,3.49,3.49,0,0,0-3.14-1.09,4,4,0,0,0-3.4,1.85,9.16,9.16,0,0,0-.93,4.53v29.15l-8.67.77,0-43.34,8.65-.78v4.19l.17,0a14.21,14.21,0,0,1,3.27-3.66,9,9,0,0,1,4.88-1.76,7.22,7.22,0,0,1,4.67,1,12.08,12.08,0,0,1,3,2.72,20.91,20.91,0,0,1,3.57-3.41,10.56,10.56,0,0,1,5.42-1.76,10.7,10.7,0,0,1,3.31.25,7.29,7.29,0,0,1,3.06,1.58,8.4,8.4,0,0,1,2.21,3.09A12.17,12.17,0,0,1,210.24,248.08ZM241,244.65a11.1,11.1,0,0,0-1.27-3.82,10.34,10.34,0,0,0-4.37-4.14,12.47,12.47,0,0,0-6.92-1.09,14.18,14.18,0,0,0-6.92,2.33,13.5,13.5,0,0,0-4.37,4.93,12.93,12.93,0,0,0-1.27,4,32.5,32.5,0,0,0-.34,4.9v14.28a31.23,31.23,0,0,0,.34,4.84,10.94,10.94,0,0,0,1.27,3.83,10.32,10.32,0,0,0,4.37,4.13,12.51,12.51,0,0,0,6.91,1.1,14.35,14.35,0,0,0,6.92-2.33,13.49,13.49,0,0,0,4.37-4.93,12.65,12.65,0,0,0,1.27-4.05,32.45,32.45,0,0,0,.35-4.9V249.49A32.51,32.51,0,0,0,241,244.65Zm-8.33,21.27a5.65,5.65,0,0,1-1.15,3.81,4.39,4.39,0,0,1-3.09,1.52,3.68,3.68,0,0,1-3.1-1,5,5,0,0,1-1.14-3.61v-17a5.73,5.73,0,0,1,1.15-3.82,4.43,4.43,0,0,1,3.1-1.52,3.66,3.66,0,0,1,3.09,1,4.87,4.87,0,0,1,1.14,3.62ZM317.5,161.51a11,11,0,0,0-1.27-3.82,10.24,10.24,0,0,0-4.36-4.13,12.49,12.49,0,0,0-6.92-1.1,14.38,14.38,0,0,0-6.92,2.33,13.32,13.32,0,0,0-4.37,4.93,12.68,12.68,0,0,0-1.28,4,34,34,0,0,0-.33,4.9v14.28a32.73,32.73,0,0,0,.33,4.85,10.7,10.7,0,0,0,1.28,3.82,10.26,10.26,0,0,0,4.36,4.14,12.55,12.55,0,0,0,6.92,1.09,14.21,14.21,0,0,0,6.91-2.33,13.24,13.24,0,0,0,4.37-4.93,12.44,12.44,0,0,0,1.28-4,33.86,33.86,0,0,0,.34-4.9V166.36A31.36,31.36,0,0,0,317.5,161.51Zm-8.32,21.27A5.7,5.7,0,0,1,308,186.6a4.41,4.41,0,0,1-3.1,1.52,3.73,3.73,0,0,1-3.1-1,4.92,4.92,0,0,1-1.14-3.61v-17a5.75,5.75,0,0,1,1.14-3.82,4.42,4.42,0,0,1,3.1-1.51,3.72,3.72,0,0,1,3.11,1,5,5,0,0,1,1.14,3.61Zm-26.72-20.95v24a7.26,7.26,0,0,0,.29,2.37,2.09,2.09,0,0,0,1,1.2,3.37,3.37,0,0,0,1.66.36c.64,0,1.45,0,2.41-.13v8.21l-3.56.31a10.93,10.93,0,0,1-5-.49,8,8,0,0,1-3.19-2.1,8.68,8.68,0,0,1-1.73-3.14,11.76,11.76,0,0,1-.55-3.5V162.61l-4.32.38v-6.83l4.32-.4V142.6l8.66-.78V155l5.35-.48v6.84Zm-18.4-5.27,0,43.34-8.65.78v-4.19l-.16,0a14.67,14.67,0,0,1-3.28,3.67,9,9,0,0,1-4.88,1.75,9.48,9.48,0,0,1-3.22-.26,6.69,6.69,0,0,1-2.89-1.58,8.38,8.38,0,0,1-2-3.11,13.5,13.5,0,0,1-.76-4.84l0-33.27,8.66-.77v30a5.39,5.39,0,0,0,1.1,3.66,3.47,3.47,0,0,0,3.13,1.09,4,4,0,0,0,3.4-1.85,9.15,9.15,0,0,0,.94-4.53V157.33ZM232.45,152a11.76,11.76,0,0,0-3.06-5.33,10.76,10.76,0,0,0-4.92-2.89,18.82,18.82,0,0,0-6.28-.38l-13,1.17,0,60.87,8.66-.78V180.87l4.41-.39a17,17,0,0,0,7.81-2.37,14.39,14.39,0,0,0,4.75-5.08,15.77,15.77,0,0,0,2-5.48,44.29,44.29,0,0,0,.47-7A35.14,35.14,0,0,0,232.45,152ZM225,165.6a8.21,8.21,0,0,1-.81,3.24,5.37,5.37,0,0,1-2.12,2.32,9.23,9.23,0,0,1-4.07,1.13l-4.16.38V152l4.5-.41a8,8,0,0,1,3.91.42,4.32,4.32,0,0,1,2,2,8.54,8.54,0,0,1,.76,3.32q.09,1.91.09,4.05C225.15,162.94,225.1,164.34,225,165.6Zm-47.24,5.85v24a7.55,7.55,0,0,0,.29,2.37,2,2,0,0,0,1,1.19,3.39,3.39,0,0,0,1.66.37c.65,0,1.45-.05,2.41-.13v8.21l-3.56.32a11.25,11.25,0,0,1-5-.5,7.79,7.79,0,0,1-3.18-2.11,8.35,8.35,0,0,1-1.73-3.13,11.19,11.19,0,0,1-.55-3.5V172.22l-4.33.39v-6.84l4.33-.38V152.21l8.65-.76v13.16l5.35-.48V171Zm-17.46-22.8v8.71l-8.66.78v-8.72Zm0,17.52,0,43.36-8.65.76V167Zm-19,8.55v24a7.59,7.59,0,0,0,.29,2.37,2.1,2.1,0,0,0,1,1.19,3.42,3.42,0,0,0,1.66.37c.65,0,1.45,0,2.41-.13v8.2l-3.57.32a10.91,10.91,0,0,1-4.95-.49,7.86,7.86,0,0,1-3.19-2.11,8.51,8.51,0,0,1-1.74-3.13,12.13,12.13,0,0,1-.54-3.51V175.49l-4.32.39V169l4.33-.39V155.49l8.67-.78v13.17l5.34-.48v6.83ZM123.8,168.6v9.24a6.86,6.86,0,0,0-2.63-.29,10.66,10.66,0,0,0-2.92.75,8.4,8.4,0,0,0-2.85,1.82,9.22,9.22,0,0,0-2.21,3.12,10.77,10.77,0,0,0-.85,4.51v25.74l-8.66.77,0-43.35,8.65-.77v4.61a31.31,31.31,0,0,1,5.18-4.22A14.22,14.22,0,0,1,123.8,168.6Zm81.41-24,13-1.17"/></g></g></svg>